<?xml version="1.0" standalone="no"?>
<!DOCTYPE svg PUBLIC "-//W3C//DTD SVG 20010904//EN"
 "http://www.w3.org/TR/2001/REC-SVG-20010904/DTD/svg10.dtd">
<svg version="1.0" xmlns="http://www.w3.org/2000/svg"
 width="250.000000pt" height="250.000000pt" viewBox="0 0 250.000000 250.000000"
 preserveAspectRatio="xMidYMid meet">
<metadata>
Created by potrace 1.11, written by Peter Selinger 2001-2013
</metadata>
<g transform="translate(0.000000,250.000000) scale(0.100000,-0.100000)"
fill="#000000" stroke="none">
<path d="M1140 2494 c-14 -2 -59 -9 -100 -15 -41 -6 -118 -25 -170 -41 -440
-140 -769 -518 -851 -978 -19 -106 -17 -335 4 -443 140 -710 843 -1153 1541
-972 433 112 779 459 891 891 148 571 -122 1166 -650 1432 -86 43 -221 88
-317 107 -82 16 -299 28 -348 19z m-356 -937 c67 -31 133 -95 166 -162 34 -69
36 -207 3 -277 -68 -148 -246 -235 -404 -198 -116 27 -198 93 -247 199 -39 82
-38 193 1 273 39 79 121 152 200 178 86 28 203 23 281 -13z m577 -183 l114
-196 3 51 c3 51 4 52 78 111 42 33 77 60 80 60 2 0 4 -106 4 -235 l0 -235 -83
0 -83 0 -114 196 -115 195 -3 -201 -2 -201 -78 3 -77 3 -3 310 c-1 170 0 315
3 322 3 9 29 13 83 13 l79 0 114 -196z m279 192 c0 -6 -145 -116 -153 -116 -9
0 -9 105 0 113 7 7 153 10 153 3z m588 -63 l-3 -68 -132 -3 -133 -3 0 -54 0
-55 100 0 100 0 0 -70 0 -70 -100 0 -100 0 0 -60 0 -60 135 0 135 0 0 -65 0
-65 -220 0 -220 0 0 320 0 320 220 0 221 0 -3 -67z"/>
<path d="M555 1426 c-37 -17 -80 -62 -94 -99 -6 -16 -11 -51 -11 -78 0 -160
170 -244 289 -143 75 64 88 183 30 265 -41 58 -146 85 -214 55z"/>
</g>
</svg>
